PathFileType	4	(X/Y/Z)	 s03c0402.trc
DataRate	CameraRate	NumFrames	NumMarkers	Units	OrigDataRate	OrigDataStartFrame	OrigNumFrames
200	200	5	50	mm	200	501	2000
Frame#	Time	racr			lacr			c7			jug			rlel			rdr			llel			ldr			s2			lic			ric			lasi			rasi			rpsi			lpsi			rgt			lgt			rth1			rth2			rth3			rth4			rlfc			rmfc			rsh1			rsh2			rsh3			rsh4			rlmal			rcal			rtoe			rmt5			rmt1			lth1			lth2			lth4			lth3			llfc			lmfc			lsh1			lsh2			lsh3			lsh4			llmal			lcal			ltoe			lmt1			lmt5			SBIKE			LBIKE			RBIKE			
		X1	Y1	Z1	X2	Y2	Z2	X3	Y3	Z3	X4	Y4	Z4	X5	Y5	Z5	X6	Y6	Z6	X7	Y7	Z7	X8	Y8	Z8	X9	Y9	Z9	X10	Y10	Z10	X11	Y11	Z11	X12	Y12	Z12	X13	Y13	Z13	X14	Y14	Z14	X15	Y15	Z15	X16	Y16	Z16	X17	Y17	Z17	X18	Y18	Z18	X19	Y19	Z19	X20	Y20	Z20	X21	Y21	Z21	X22	Y22	Z22	X23	Y23	Z23	X24	Y24	Z24	X25	Y25	Z25	X26	Y26	Z26	X27	Y27	Z27	X28	Y28	Z28	X29	Y29	Z29	X30	Y30	Z30	X31	Y31	Z31	X32	Y32	Z32	X33	Y33	Z33	X34	Y34	Z34	X35	Y35	Z35	X36	Y36	Z36	X37	Y37	Z37	X38	Y38	Z38	X39	Y39	Z39	X40	Y40	Z40	X41	Y41	Z41	X42	Y42	Z42	X43	Y43	Z43	X44	Y44	Z44	X45	Y45	Z45	X46	Y46	Z46	X47	Y47	Z47	X48	Y48	Z48	X49	Y49	Z49	X50	Y50	Z50	
501	2.5050	833.658200	1474.265741	-154.970731	773.628960	1520.105558	-490.016452	742.042220	1594.873105	-306.528392	764.728610	1423.994449	-319.071590	700.400456	1250.216943	5.858235	754.392572	976.219031	-15.272021	650.592101	1246.272195	-534.439278	742.839824	980.100113	-429.509971	211.334319	1352.455243	-222.975969	357.318017	1373.105508	-421.103012	411.829663	1329.630384	-63.017290	382.076500	1294.299038	-377.867099	417.206047	1259.751251	-111.818958	257.522865	1384.525960	-172.634963	248.517192	1399.803508	-254.562869	295.186129	1219.341098	-49.869341	321.377205	1279.085357	-438.983745	299.360909	1063.232002	-39.563607	331.525593	980.563126	-42.891710	321.844016	896.094742	-52.151244	367.280200	985.925261	-50.016123	316.024341	767.851582	-80.630085	329.588772	746.633160	-197.514725	242.976946	618.581563	-48.081608	233.718022	530.363343	-56.925647	180.713955	459.249127	-57.114981	262.188004	520.544086	-80.452442	126.319468	343.028775	-72.809697	60.154253	351.675669	-111.880995	266.451040	118.423743	-111.490620	174.790901	195.364945	-43.005392	205.271042	188.349674	-155.275714	410.607921	1149.226260	-463.401413	479.451208	1096.527163	-464.795836	507.431826	1118.120582	-454.314462	513.385927	1014.195226	-463.814924	601.187861	909.836694	-442.493930	597.600426	898.246512	-315.243656	477.574868	788.801025	-462.021191	434.878881	717.467172	-440.807491	356.390369	671.706928	-437.471097	456.874850	699.516710	-414.910233	261.967116	585.112490	-417.595975	179.892474	561.617990	-371.175444	472.936008	462.352699	-354.673718	380.682436	488.640900	-315.340980	355.477503	474.073562	-432.935236	-216.679924	946.088307	-233.786366	-8.104923	84.018286	-437.008843	-13.873067	81.254252	-36.699647	
502	2.5100	834.119211	1473.852347	-156.643568	773.286648	1518.445496	-491.923342	742.474892	1594.260527	-308.387130	764.578374	1423.160658	-320.428248	701.026817	1250.297953	4.635636	754.435065	976.162098	-15.372925	648.860397	1245.156029	-536.090121	742.727186	980.281028	-429.801462	211.210074	1352.592264	-224.345771	357.407522	1372.884184	-422.505930	411.676253	1330.653965	-63.623349	381.910633	1294.752327	-379.225510	416.967663	1260.616546	-111.973370	257.362971	1385.079821	-173.703702	248.484732	1399.771612	-256.001902	295.848382	1220.172066	-50.277539	321.349333	1278.230389	-439.091338	302.159340	1063.734645	-39.796342	334.999218	981.363764	-43.428924	326.073169	896.849694	-52.584545	370.657012	987.053803	-50.401658	320.502257	768.470270	-80.139869	333.299098	747.447553	-197.199382	244.670819	619.933809	-47.616444	234.152181	531.933223	-56.699657	180.077753	461.567351	-57.333366	262.598336	521.709855	-80.102400	124.271907	346.449433	-73.152444	58.079802	355.210164	-112.767119	262.483461	120.310290	-111.192016	171.152585	198.019800	-43.242719	201.941683	190.682022	-155.476681	410.527367	1148.085310	-463.763169	479.215552	1095.182766	-464.696756	507.264157	1116.785538	-454.379675	512.980761	1012.820909	-463.337757	600.434650	908.396433	-441.672658	596.815311	897.013273	-314.452030	477.876058	786.353350	-461.393357	435.780376	714.659040	-440.112306	357.689841	668.222834	-436.910813	457.837497	696.925845	-414.055376	263.828513	581.068325	-417.157309	181.771126	556.439114	-370.819418	476.422348	461.146804	-355.047545	383.723688	485.971131	-315.264535	358.628805	471.306135	-432.887882	-216.659696	946.090556	-233.765744	-8.096734	84.002585	-436.996533	-13.873263	81.261579	-36.682821	
503	2.5150	834.615360	1473.500473	-158.186524	772.973801	1516.626544	-493.750777	742.848348	1593.573656	-310.171147	764.400189	1422.328562	-321.769010	701.562813	1250.313670	3.534087	754.484926	976.140797	-15.486936	647.105901	1243.961768	-537.630158	742.542275	980.485312	-430.170416	211.103191	1352.658520	-225.437880	357.409008	1372.428089	-423.400853	411.521424	1331.720970	-64.173069	381.875104	1294.593128	-380.069264	417.000610	1261.478871	-112.350597	257.191573	1385.405968	-174.953701	248.248952	1399.868686	-256.955459	296.436989	1220.930785	-50.594781	321.229036	1277.423194	-439.726474	304.977412	1064.244751	-40.087753	338.659283	982.121163	-43.892556	330.509877	897.560307	-52.883533	374.252489	988.035257	-50.923706	325.337375	769.145263	-79.670812	337.348701	748.325880	-196.672391	246.499740	621.356452	-47.143919	234.684109	533.563691	-56.465935	179.474437	464.066319	-57.512993	263.093291	522.887019	-79.654062	122.018790	349.779120	-73.760473	56.081644	358.917655	-113.791244	258.460204	122.225210	-110.905699	167.406538	200.784141	-43.708572	198.713994	193.095857	-155.618949	410.367567	1146.854646	-464.073455	478.946064	1093.754922	-464.627459	507.010665	1115.311124	-454.434410	512.528686	1011.306766	-462.846327	599.723048	906.771343	-440.524235	595.831214	895.705577	-313.864170	478.122662	783.738578	-460.764355	436.577145	711.774518	-439.426514	359.060231	664.772085	-436.220500	458.776129	694.324442	-413.335389	265.728762	576.872640	-416.750286	183.691933	551.235856	-370.513576	479.584248	459.363552	-354.827589	386.721781	483.138702	-315.139528	361.777514	468.388977	-432.814422	-216.639324	946.086709	-233.756686	-8.094997	84.026467	-437.004515	-13.870797	81.258083	-36.691770	
504	2.5200	834.953166	1473.186442	-159.608552	772.663510	1514.925914	-495.527488	743.169647	1592.815453	-311.920815	764.229474	1421.398948	-322.978365	702.041942	1250.375514	2.500367	754.474496	976.152592	-15.598586	645.308128	1242.848139	-539.319599	742.320057	980.666740	-430.577489	210.857675	1351.900479	-226.314784	357.313334	1372.012155	-424.698000	411.336778	1332.732234	-64.754646	381.777586	1294.389786	-380.870311	416.964480	1262.196549	-112.711969	257.005328	1385.770550	-176.160181	248.063475	1399.731594	-258.100562	297.223187	1221.500301	-50.896888	321.075911	1276.559753	-440.389575	307.940284	1064.687484	-40.366002	342.392753	982.937075	-44.323346	335.097607	898.331313	-53.055214	377.814198	989.256674	-51.443507	330.546363	769.706415	-79.214435	341.587367	749.217829	-196.164781	248.386086	622.955599	-46.578862	235.221888	535.268571	-56.213137	178.995387	466.749438	-57.667114	263.712508	524.312099	-79.081304	119.869196	353.211971	-74.412318	54.205415	362.733274	-114.887065	254.614019	124.457929	-110.419740	163.921886	203.891406	-43.830222	195.635212	195.649888	-155.695730	410.100477	1145.512492	-464.366598	478.494746	1092.275208	-464.598423	506.677999	1113.806248	-454.480878	511.983320	1009.681622	-462.360526	598.835788	905.113532	-439.682644	594.895181	894.316455	-313.159689	478.343099	781.134856	-460.141566	437.737501	708.666156	-439.060386	360.330384	661.082614	-435.709541	459.473257	691.660708	-412.372377	267.601028	572.567939	-416.350663	185.833733	546.070182	-370.320859	482.798492	457.467504	-354.916162	389.655220	480.196626	-314.952758	364.837260	465.338212	-432.734998	-216.612195	946.100507	-233.756134	-8.084285	84.066867	-436.951951	-13.865323	81.248243	-36.670074	
505	2.5250	835.255719	1472.908787	-160.980410	772.341895	1513.083761	-497.187216	743.444588	1592.102627	-313.632286	764.043880	1420.513994	-324.153716	702.383832	1250.439447	1.620591	754.502182	976.163479	-15.712064	643.471188	1241.740972	-540.870749	742.080424	980.838973	-430.988830	210.773690	1351.818135	-227.459874	357.259219	1371.378055	-425.616634	411.095465	1333.613904	-65.341638	381.680512	1294.071503	-381.811227	416.881486	1262.877413	-113.066603	256.700856	1386.044469	-177.087081	247.900865	1399.570698	-259.161954	297.945648	1221.981769	-51.177315	320.862581	1275.570716	-440.989576	310.929030	1065.158369	-40.606372	346.245330	983.824069	-44.647459	339.806212	899.097267	-53.090735	381.502012	990.448188	-51.956056	336.073197	770.380339	-78.551881	346.288956	750.028252	-195.545577	250.442339	624.596009	-46.018105	235.918933	537.329586	-55.838924	178.577935	469.652561	-57.849496	264.339016	525.780709	-78.469017	117.844955	356.735935	-75.044443	52.558679	366.816798	-115.902723	250.751994	126.604961	-110.095815	160.522789	206.939487	-44.063487	192.780447	198.283028	-155.743185	409.771214	1144.089844	-464.653078	478.052542	1090.637050	-464.538080	506.298763	1112.153634	-454.584292	511.327249	1007.956397	-461.871029	597.593129	903.658020	-439.438258	593.783890	892.801148	-312.663134	478.550811	778.398069	-459.565641	438.526000	705.670990	-438.518834	361.586258	657.427897	-435.280685	460.416598	688.925015	-411.666096	269.476265	568.155792	-415.957906	187.994928	540.950246	-370.188534	486.066062	455.455768	-355.130646	392.630463	477.170127	-314.928067	367.800418	462.180345	-432.687187	-216.575256	946.120343	-233.753658	-8.089094	84.012419	-436.998711	-13.853302	81.257579	-36.667321	
